name GIL03_slow3.mot
datacolumns 153
datarows 4
range 0.88333327 0.90833330
endheader

                time	           pelvis_tx	           pelvis_ty	           pelvis_tz	         pelvis_tilt	         pelvis_list	     pelvis_rotation	       hip_flexion_r	     hip_adduction_r	      hip_rotation_r	        knee_angle_r	       ankle_angle_r	    subtalar_angle_r	         mtp_angle_r	       hip_flexion_l	     hip_adduction_l	      hip_rotation_l	        knee_angle_l	       ankle_angle_l	    subtalar_angle_l	         mtp_angle_l	    lumbar_extension	      lumbar_bending	     lumbar_rotation	     ground_force_vx	     ground_force_vy	     ground_force_vz	     ground_force_px	     ground_force_py	     ground_force_pz	     ground_force_vx	     ground_force_vy	     ground_force_vz	     ground_force_px	     ground_force_py	     ground_force_pz	     ground_torque_x	     ground_torque_y	     ground_torque_z	     ground_torque_x	     ground_torque_y	     ground_torque_z	    ground_marker_px	    ground_marker_py	    ground_marker_pz	    ground_marker_px	    ground_marker_py	    ground_marker_pz	    ground_marker_px	    ground_marker_py	    ground_marker_pz	    ground_marker_px	    ground_marker_py	    ground_marker_pz	    ground_marker_px	    ground_marker_py	    ground_marker_pz	    ground_marker_px	    ground_marker_py	    ground_marker_pz	    ground_marker_px	    ground_marker_py	    ground_marker_pz	    ground_marker_px	    ground_marker_py	    ground_marker_pz	    ground_marker_px	    ground_marker_py	    ground_marker_pz	    ground_marker_px	    ground_marker_py	    ground_marker_pz	    ground_marker_px	    ground_marker_py	    ground_marker_pz	    ground_marker_px	    ground_marker_py	    ground_marker_pz	    ground_marker_px	    ground_marker_py	    ground_marker_pz	    ground_marker_px	    ground_marker_py	    ground_marker_pz	    ground_marker_px	    ground_marker_py	    ground_marker_pz	    ground_marker_px	    ground_marker_py	    ground_marker_pz	    ground_marker_px	    ground_marker_py	    ground_marker_pz	    ground_marker_px	    ground_marker_py	    ground_marker_pz	    ground_marker_px	    ground_marker_py	    ground_marker_pz	    ground_marker_px	    ground_marker_py	    ground_marker_pz	    ground_marker_px	    ground_marker_py	    ground_marker_pz	    ground_marker_px	    ground_marker_py	    ground_marker_pz	    ground_marker_px	    ground_marker_py	    ground_marker_pz	    ground_marker_px	    ground_marker_py	    ground_marker_pz	    ground_marker_px	    ground_marker_py	    ground_marker_pz	    ground_marker_px	    ground_marker_py	    ground_marker_pz	    ground_marker_px	    ground_marker_py	    ground_marker_pz	    ground_marker_px	    ground_marker_py	    ground_marker_pz	    ground_marker_px	    ground_marker_py	    ground_marker_pz	    ground_marker_px	    ground_marker_py	    ground_marker_pz	    ground_marker_px	    ground_marker_py	    ground_marker_pz	    ground_marker_px	    ground_marker_py	    ground_marker_pz	    ground_marker_px	    ground_marker_py	    ground_marker_pz	    ground_marker_px	    ground_marker_py	    ground_marker_pz	    ground_marker_px	    ground_marker_py	    ground_marker_pz	    ground_marker_px	    ground_marker_py	    ground_marker_pz	    ground_marker_px	    ground_marker_py	    ground_marker_pz	
          0.88333327	          1.18854499	          0.88622260	         -0.19254746	         -1.45098877	          1.24247074	         -4.58585739	        -14.07973862	          0.23098797	         -3.71921444	        -16.28198433	          9.53164005	          0.00000000	          0.00000000	         23.00304413	          0.63875258	          4.44417667	        -16.78193665	         -2.85079265	          0.00000000	          0.00000000	        -12.91367435	         -0.69637644	          7.14975023	         46.10236703	        223.25294476	         -0.09506079	          0.92443085	          0.00000000	         -0.14262244	        -25.50750747	        220.97523745	          5.77478331	          1.29829333	          0.00000000	         -0.24028502	          0.00000000	          1.03924805	          0.00000000	          0.00000000	          0.15575281	          0.00000000	          1.13057935	          0.82915789	         -0.20439193	          1.12469602	          0.80986983	         -0.13931274	          1.12445092	          0.80937153	         -0.25678328	          1.02394998	          0.44674903	         -0.15008999	          1.25786388	          0.46876061	         -0.24243316	          0.81302273	          0.10567270	         -0.17300375	          1.28996563	          0.06540062	         -0.23373818	          1.18854499	          0.88622260	         -0.19254746	          1.18031645	          0.88598174	         -0.09349510	          1.19677341	          0.88646346	         -0.29159981	          1.03354120	          0.92399800	         -0.18690763	          1.03821075	          0.92244095	         -0.24144985	          1.02486801	          0.44486314	         -0.09513000	          1.27881229	          0.47486174	         -0.29237506	          1.02681816	          0.44681585	         -0.20132251	          1.24549317	          0.44683596	         -0.20534359	          0.79993516	          0.11136404	         -0.13724658	          1.29732311	          0.06517156	         -0.27152795	          0.83581722	          0.11504945	         -0.20096323	          1.30814576	          0.08135101	         -0.20756802	          1.08489418	          1.32954037	         -0.18002297	          1.18725538	          1.25528252	         -0.13803057	          1.18286979	          1.25750411	         -0.24456473	          1.16991615	          1.26758075	         -0.19554612	          1.22416496	          1.10064244	         -0.20029080	          1.20686889	          0.58172137	         -0.12675598	          1.31401658	          0.66564810	         -0.20187372	          1.13878524	          0.64791948	         -0.08935985	          1.25506806	          0.68323183	         -0.28122261	          1.11014628	          0.56727535	         -0.09290488	          1.28499842	          0.60127109	         -0.27197450	          0.85122317	          0.21980962	         -0.06098459	          1.25868046	          0.17845160	         -0.34135425	          0.86179888	          0.22407292	         -0.10153876	          1.26718616	          0.18536614	         -0.29975253	          0.90508795	          0.04232514	         -0.13763937	          1.41723108	          0.04219246	         -0.23825935	
          0.89166665	          1.19667101	          0.88646930	         -0.19378360	         -1.56709194	          1.31533885	         -4.54125881	        -14.00731850	         -0.13162985	         -3.71739388	        -17.01546478	          8.49031830	          0.00000000	          0.00000000	         22.80806732	          0.90567625	          4.30600071	        -17.17467690	         -2.58918047	          0.00000000	          0.00000000	        -12.41867733	         -0.74901819	          7.46785641	         43.40752786	        194.83326606	          0.70543492	          0.92574707	          0.00000000	         -0.14298907	        -29.16167635	        255.61555878	          4.12437495	          1.30204810	          0.00000000	         -0.23970650	          0.00000000	          0.85430151	          0.00000000	          0.00000000	          0.23994312	          0.00000000	          1.13875008	          0.82962424	         -0.20554140	          1.13269329	          0.81016952	         -0.14062777	          1.13239336	          0.80983835	         -0.25809875	          1.03142524	          0.44695687	         -0.14946254	          1.26371896	          0.46877268	         -0.24270360	          0.81593466	          0.10890533	         -0.17178155	          1.29076540	          0.06531618	         -0.23337017	          1.19667101	          0.88646930	         -0.19378360	          1.18848884	          0.88610452	         -0.09474709	          1.20485306	          0.88683408	         -0.29282010	          1.04174948	          0.92454714	         -0.18768202	          1.04631031	          0.92306191	         -0.24223976	          1.03246152	          0.44533098	         -0.09449635	          1.28465128	          0.47457635	         -0.29268768	          1.03462255	          0.44687268	         -0.20132737	          1.24999535	          0.44693500	         -0.20531701	          0.80272239	          0.11497381	         -0.13613243	          1.29823864	          0.06494350	         -0.27113605	          0.83900887	          0.11797083	         -0.19949098	          1.30886245	          0.08075702	         -0.20682213	          1.09136391	          1.32975507	         -0.18088076	          1.19444418	          1.25603175	         -0.13956241	          1.18940616	          1.25834119	         -0.24593495	          1.17674863	          1.26833832	         -0.19685806	          1.23188639	          1.10167813	         -0.20215417	          1.21492684	          0.58177191	         -0.12712237	          1.32127070	          0.66533035	         -0.20282866	          1.14698398	          0.64799464	         -0.08997983	          1.26269794	          0.68283635	         -0.28237915	          1.11825323	          0.56756353	         -0.09327985	          1.29157662	          0.60047019	         -0.27268216	          0.85519290	          0.22323669	         -0.06017619	          1.26126158	          0.17832239	         -0.34114757	          0.86566532	          0.22721121	         -0.10073742	          1.26964462	          0.18489970	         -0.29917380	          0.90594715	          0.04264399	         -0.13721001	          1.41793072	          0.04106755	         -0.23767087	
          0.89999998	          1.20477474	          0.88680828	         -0.19507548	         -1.64559269	          1.36982727	         -4.46137094	        -13.88909626	         -0.48587629	         -3.78560829	        -17.87964249	          7.34462690	          0.00000000	          0.00000000	         22.56069946	          1.17622828	          4.17726040	        -17.57184219	         -2.18884444	          0.00000000	          0.00000000	        -12.01103306	         -0.72503883	          7.60618496	         39.77868448	        165.13039163	          1.59022700	          0.92723828	          0.00000000	         -0.14341525	        -31.41471910	        282.07655979	          1.41452214	          1.30489331	          0.00000000	         -0.23904407	          0.00000000	          0.69121869	          0.00000000	          0.00000000	          0.41023694	          0.00000000	          1.14681745	          0.83007324	         -0.20666969	          1.14075506	          0.81052750	         -0.14194281	          1.14032185	          0.81034398	         -0.25941369	          1.03950655	          0.44708899	         -0.14873619	          1.26947081	          0.46884859	         -0.24301080	          0.81925422	          0.11232650	         -0.17049812	          1.29134238	          0.06529170	         -0.23300658	          1.20477474	          0.88680828	         -0.19507548	          1.19670391	          0.88633037	         -0.09602751	          1.21284556	          0.88728625	         -0.29412347	          1.04986393	          0.92509538	         -0.18839779	          1.05431008	          0.92367065	         -0.24296065	          1.04063332	          0.44574755	         -0.09376409	          1.29035985	          0.47434515	         -0.29304764	          1.04304266	          0.44712853	         -0.20163077	          1.25488114	          0.44745719	         -0.20490955	          0.80589920	          0.11880391	         -0.13497435	          1.29885507	          0.06476288	         -0.27076274	          0.84269929	          0.12100460	         -0.19794296	          1.30900586	          0.08023520	         -0.20610221	          1.09784400	          1.33006263	         -0.18175218	          1.20153654	          1.25686872	         -0.14095643	          1.19613004	          1.25932133	         -0.24727131	          1.18354535	          1.26915801	         -0.19815484	          1.23969650	          1.10284543	         -0.20391072	          1.22338283	          0.58197856	         -0.12734577	          1.32848859	          0.66513771	         -0.20386116	          1.15554738	          0.64812058	         -0.09041760	          1.27023387	          0.68273062	         -0.28346223	          1.12679791	          0.56792277	         -0.09364968	          1.29821622	          0.60007453	         -0.27320135	          0.85957396	          0.22685522	         -0.05932634	          1.26344061	          0.17826490	         -0.34091383	          0.86996347	          0.23058783	         -0.09992057	          1.27155602	          0.18475389	         -0.29839292	          0.90691984	          0.04300998	         -0.13684818	          1.41845000	          0.04025447	         -0.23719414	
          0.90833330	          1.21282959	          0.88724971	         -0.19640912	         -1.69219017	          1.41218817	         -4.34981060	        -13.70196342	         -0.83547431	         -3.93678427	        -18.89777374	          6.09790802	          0.00000000	          0.00000000	         22.27011871	          1.45038092	          4.04511929	        -17.97559547	         -1.66723299	          0.00000000	          0.00000000	        -11.63459015	         -0.75799334	          7.64100933	         35.00392194	        134.87944432	          2.50812882	          0.92910010	          0.00000000	         -0.14394766	        -33.05208266	        302.34918849	         -0.31031103	          1.30745435	          0.00000000	         -0.23856998	          0.00000000	          0.55464191	          0.00000000	          0.00000000	          0.57938098	          0.00000000	          1.15480220	          0.83061922	         -0.20764795	          1.14884269	          0.81095535	         -0.14325646	          1.14820778	          0.81091064	         -0.26072657	          1.04826474	          0.44711423	         -0.14791811	          1.27512145	          0.46899453	         -0.24336401	          0.82302630	          0.11593550	         -0.16915953	          1.29171312	          0.06530576	         -0.23269297	          1.21282959	          0.88724971	         -0.19640912	          1.20492661	          0.88666099	         -0.09732603	          1.22073257	          0.88783836	         -0.29549220	          1.05785346	          0.92566937	         -0.18904254	          1.06219220	          0.92429698	         -0.24360327	          1.04943728	          0.44608572	         -0.09294023	          1.29593337	          0.47417539	         -0.29346663	          1.05201840	          0.44700494	         -0.20127174	          1.26094210	          0.44820940	         -0.20494545	          0.80952376	          0.12284917	         -0.13377406	          1.29922044	          0.06461632	         -0.27044764	          0.84693956	          0.12421393	         -0.19630873	          1.30917573	          0.07999978	         -0.20568900	          1.10424733	          1.33047950	         -0.18255539	          1.20861089	          1.25787830	         -0.14219403	          1.20292640	          1.26032698	         -0.24865016	          1.19029915	          1.27003932	         -0.19941553	          1.24761701	          1.10412478	         -0.20535950	          1.23224103	          0.58236063	         -0.12738849	          1.33566618	          0.66507185	         -0.20499252	          1.16437435	          0.64843136	         -0.09067522	          1.27762032	          0.68305063	         -0.28454298	          1.13571012	          0.56817311	         -0.09367419	          1.30517280	          0.60028344	         -0.27385214	          0.86445177	          0.23063391	         -0.05843268	          1.26531363	          0.17829064	         -0.34073287	          0.87491477	          0.23399520	         -0.09899405	          1.27307212	          0.18509290	         -0.29782954	          0.90803963	          0.04344434	         -0.13658935	          1.41881847	          0.03969877	         -0.23683058	
